<?xml version="1.0" encoding="UTF-8" standalone="no"?>
<svg
   xmlns="http://www.w3.org/2000/svg"
   height="360"
   width="235"
   version="1.1">
  <rect
     x="5"
     y="5"
     height="350"
     width="225"
     rx="10"
     ry="10"
     style="fill:white"
     stroke="grey"
     stroke-width="2"/>
  <path
     id="squiggle"
     d="m 33,180 c 6,-13 11,-23 26,-28 15,-5 31,-1 58,7 23,7 36,0 43,-3 7,-4 17,-9 30,-9 13,0 18,21 12,33 -5,11 -14,23 -26,28 -12,5 -32,1 -59,-7 -17,-5 -29,-3 -42,3 -9,4 -18,10 -30,9 -13,0 -19,-18 -12,-33 z"
     style="fill:#008000"/>
</svg>
